#!OML:ASF F:\VICON\USERDATA\INSTALL\Justin_Nancy\Justin_Nancy.ASF
:FULLY-SPECIFIED
:DEGREES
350
root -7.04375 17.5483 11.634 5.83662 -48.145 -6.28393
lowerback 7.0632 0.341419 2.33973
upperback 0.469152 0.745162 4.0433
thorax -3.50352 0.344916 2.80097
lowerneck -14.469 -3.33277 -9.45988
upperneck 23.4394 -3.53657 4.25064
head 10.1113 -2.04936 2.61886
rclavicle 2.59414e-014 -4.29375e-014
rhumerus -28.541 -11.3894 -79.1861
rradius 30.4189
rwrist 6.39997
rhand -13.0153 12.9833
rfingers 7.12502
rthumb 13.0784 -16.5866
lclavicle 2.59414e-014 -4.29375e-014
lhumerus -30.9938 13.5349 83.9166
lradius 25.5225
lwrist -9.52038
lhand -14.7171 25.7633
lfingers 7.12502
lthumb 11.4376 55.4313
rfemur -3.55111 5.96698 30.6046
rtibia 17.6045
rfoot -10.1624 -5.53837
rtoes 11.0808
lfemur -32.7015 2.28117 -17.0529
ltibia 58.8223
lfoot -4.89973 -1.78788
ltoes -2.34889
351
root -7.13293 17.5273 11.7254 6.11893 -48.2266 -6.56274
lowerback 7.04641 0.470949 2.58136
upperback 0.449985 0.937327 4.08819
thorax -3.51714 0.436365 2.69266
lowerneck -14.5301 -3.35954 -9.75556
upperneck 23.5542 -3.53778 4.41668
head 10.1743 -2.05867 2.72831
rclavicle 8.34896e-015 2.62396e-014
rhumerus -28.2547 -11.7347 -79.0041
rradius 30.2947
rwrist 7.17031
rhand -12.9651 13.7168
rfingers 7.12502
rthumb 13.1268 -15.85
lclavicle 8.34896e-015 2.62396e-014
lhumerus -30.9903 13.275 84.0557
lradius 25.4758
lwrist -9.31563
lhand -14.7769 25.9759
lfingers 7.12502
lthumb 11.3799 55.6471
rfemur -3.18645 5.78583 30.8745
rtibia 17.6013
rfoot -10.4793 -5.68707
rtoes 9.15645
lfemur -33.0765 2.24447 -16.8642
ltibia 56.9189
lfoot -5.1469 -0.539401
ltoes -1.09412
352
root -7.22681 17.5093 11.8249 6.4245 -48.2673 -6.95105
lowerback 7.03683 0.58841 2.9542
upperback 0.400575 1.12421 4.07453
thorax -3.56101 0.522583 2.45022
lowerneck -14.4601 -3.38656 -9.6896
upperneck 23.6116 -3.5928 4.37786
head 10.1839 -2.08476 2.69717
rclavicle -6.39093e-014 2.38542e-014
rhumerus -28.4298 -10.7948 -79.2619
rradius 30.9252
rwrist 6.19008
rhand -13.2526 13.4495
rfingers 7.12502
rthumb 12.8497 -16.135
lclavicle -6.39093e-014 2.38542e-014
lhumerus -31.0276 12.9866 84.0212
lradius 25.3072
lwrist -9.28287
lhand -15.0921 25.5157
lfingers 7.12502
lthumb 11.0759 55.2035
rfemur -2.6212 5.6587 31.2102
rtibia 17.4531
rfoot -10.7124 -5.89555
rtoes 6.04549
lfemur -33.2916 2.08922 -16.5273
ltibia 54.854
lfoot -5.41563 0.334205
ltoes 1.58863
353
root -7.32356 17.5002 11.9331 6.24738 -48.2354 -6.70616
lowerback 6.91201 0.511086 2.87665
upperback 0.313764 1.0139 4.09095
thorax -3.58035 0.469365 2.52277
lowerneck -14.0676 -3.23601 -10.1172
upperneck 23.5401 -3.36633 4.56975
head 10.0773 -2.00178 2.86987
rclavicle -4.76586e-014 -1.90833e-014
rhumerus -28.6792 -9.27397 -79.4731
rradius 31.6197
rwrist 5.26543
rhand -13.1387 13.3444
rfingers 7.12502
rthumb 12.9595 -16.2331
lclavicle -4.76586e-014 -1.90833e-014
lhumerus -31.4949 13.3849 83.9506
lradius 25.459
lwrist -9.13502
lhand -15.5543 25.5167
lfingers 7.12502
lthumb 10.6301 55.2278
rfemur -1.87754 5.71846 31.0288
rtibia 17.1025
rfoot -11.0273 -5.93154
rtoes 6.35589
lfemur -33.3374 1.64207 -16.6154
ltibia 52.6794
lfoot -5.85939 0.815238
ltoes 3.17331
354
root -7.41319 17.5015 12.0313 6.21983 -48.1336 -6.55468
lowerback 6.83426 0.491964 2.84089
upperback 0.282953 0.983945 4.11866
thorax -3.56912 0.455393 2.57516
lowerneck -14.1403 -3.21123 -10.4432
upperneck 23.7049 -3.27679 4.68666
head 10.1525 -1.97957 2.97989
rclavicle -1.1455e-013 -3.18055e-014
rhumerus -28.4222 -9.23353 -79.3351
rradius 31.6831
rwrist 5.87924
rhand -12.8121 13.7272
rfingers 7.12502
rthumb 13.2743 -15.8301
lclavicle -1.1455e-013 -3.18055e-014
lhumerus -31.7167 13.8228 83.9136
lradius 25.6387
lwrist -9.09456
lhand -15.2214 25.5803
lfingers 7.12502
lthumb 10.9512 55.2747
rfemur -1.21031 5.60276 30.9227
rtibia 16.6035
rfoot -11.2422 -5.92124
rtoes 6.58939
lfemur -33.5852 0.909379 -16.4851
ltibia 50.4677
lfoot -6.03035 1.29492
ltoes 6.64193
355
root -7.49771 17.49 12.1215 6.75281 -48.0448 -6.96093
lowerback 6.67852 0.572584 3.25082
upperback 0.281803 1.11178 4.08399
thorax -3.47753 0.512123 2.29713
lowerneck -14.2646 -3.28046 -10.313
upperneck 23.578 -3.3914 4.71287
head 10.1375 -2.0116 2.94984
rclavicle 1.65985e-014 1.66979e-014
rhumerus -28.0468 -9.58169 -79.3721
rradius 31.7441
rwrist 6.40823
rhand -12.691 14.0517
rfingers 7.12502
rthumb 13.391 -15.4979
lclavicle 1.65985e-014 1.66979e-014
lhumerus -31.6396 13.7141 83.8462
lradius 25.7519
lwrist -8.89235
lhand -15.3435 25.4577
lfingers 7.12502
lthumb 10.8334 55.1582
rfemur -0.756882 5.34552 31.1989
rtibia 16.1272
rfoot -11.3792 -5.7236
rtoes 5.98857
lfemur -33.8416 0.723667 -16.2202
ltibia 48.352
lfoot -6.39245 2.12478
ltoes 2.87711
